<svg width="22" height="18" viewBox="0 0 22 18" fill="none" xmlns="http://www.w3.org/2000/svg">
<path d="M19.625 0.75H2.375C1.87784 0.750397 1.40116 0.948069 1.04961 1.29961C0.698069 1.65116 0.500397 2.12784 0.5 2.625V15.375C0.5 16.4093 1.34075 17.25 2.375 17.25H19.625C20.6593 17.25 21.5 16.4093 21.5 15.375V2.625C21.5 1.59075 20.6593 0.75 19.625 0.75ZM7.25 1.5H8.75V3.30675H7.25V1.5ZM1.25 4.5H2.75V6H1.25V4.5ZM6.5 16.5H2.375C1.75475 16.5 1.25 15.9952 1.25 15.375V6.75H2.81525C2.8505 6.849 2.89625 6.9435 2.95625 7.02975C2.82083 7.29093 2.75009 7.5808 2.75 7.875V9.375C2.75045 9.44275 2.76917 9.50912 2.80418 9.56712C2.8392 9.62511 2.88922 9.67259 2.94896 9.70453C3.00871 9.73648 3.07596 9.75171 3.14364 9.74862C3.21132 9.74554 3.27691 9.72425 3.3335 9.687L4.25 9.07575L5.16725 9.687C5.2237 9.72467 5.28934 9.74625 5.35713 9.74942C5.42491 9.75259 5.49228 9.73724 5.552 9.705C5.61185 9.67314 5.66189 9.6256 5.69677 9.56746C5.73165 9.50933 5.75005 9.4428 5.75 9.375V7.8045C5.75 7.32525 6.056 6.9225 6.4985 6.76275L6.5 6.7635V16.5ZM5 5.55675H6.125V6.036L3.9935 6.74625C3.93578 6.76541 3.87427 6.7703 3.81425 6.7605C3.809 6.75975 3.8045 6.75525 3.79925 6.7545C3.71493 6.73798 3.63897 6.69266 3.58438 6.6263C3.52979 6.55994 3.49996 6.47668 3.5 6.39075V3.972C3.5 3.8505 3.55625 3.73875 3.65525 3.66825C3.70332 3.63307 3.75916 3.61 3.81804 3.60099C3.87693 3.59198 3.93711 3.5973 3.9935 3.6165L6.125 4.3275V4.8075H5C4.90354 4.81182 4.81247 4.85317 4.74574 4.92296C4.67901 4.99274 4.64177 5.08557 4.64177 5.18213C4.64177 5.27868 4.67901 5.37151 4.74574 5.44129C4.81247 5.51108 4.90354 5.55243 5 5.55675ZM3.5765 7.4745C3.617 7.48575 3.659 7.4835 3.70025 7.4895C3.75725 7.4985 3.8135 7.5165 3.872 7.5165C3.87875 7.5165 3.8855 7.5135 3.89225 7.5135C4.00743 7.51258 4.12179 7.49386 4.23125 7.458L5.11175 7.16475C5.03757 7.36988 4.99975 7.58637 5 7.8045V8.67375L4.45775 8.313C4.39628 8.27185 4.32397 8.24989 4.25 8.24989C4.17603 8.24989 4.10372 8.27185 4.04225 8.313L3.5 8.67375V7.875C3.5 7.737 3.5255 7.60275 3.5765 7.4745ZM6.5 3.6015C6.4835 3.6165 6.464 3.6285 6.449 3.64425L4.23125 2.90475C4.06223 2.8473 3.88187 2.83134 3.70539 2.85823C3.52891 2.88512 3.36149 2.95407 3.21725 3.05925C2.98707 3.22439 2.82918 3.4717 2.77625 3.75H1.25V2.625C1.25 2.00475 1.75475 1.5 2.375 1.5H6.5V3.6015ZM8.75 16.5H7.25V7.05675H8.75V16.5ZM9.125 5.93175C9.12334 6.0121 9.09512 6.08963 9.04475 6.15225C9.04175 6.15825 9.03425 6.15975 9.03125 6.16575C9.02975 6.16875 9.0305 6.1725 9.029 6.1755C8.99468 6.21617 8.95198 6.24894 8.90383 6.27159C8.85568 6.29425 8.80321 6.30624 8.75 6.30675H7.25C7.1944 6.30616 7.13967 6.29296 7.08991 6.26814C7.04015 6.24333 6.99667 6.20755 6.96275 6.1635L6.96575 6.162C6.95628 6.14271 6.94498 6.12437 6.932 6.10725C6.9275 6.102 6.92 6.09975 6.9155 6.0945C6.88914 6.04425 6.87501 5.98849 6.87425 5.93175V4.43175C6.87425 4.2255 7.043 4.05675 7.24925 4.05675H8.74925C8.9555 4.05675 9.12425 4.2255 9.12425 4.43175V5.93175H9.125ZM20.75 15.375C20.75 15.9952 20.2453 16.5 19.625 16.5H9.5V6.76425L9.5015 6.7635C9.944 6.9225 10.25 7.326 10.25 7.8045V9.375C10.2504 9.44275 10.2692 9.50912 10.3042 9.56712C10.3392 9.62511 10.3892 9.67259 10.449 9.70453C10.5087 9.73648 10.576 9.75171 10.6436 9.74862C10.7113 9.74554 10.7769 9.72425 10.8335 9.687L11.75 9.07575L12.6672 9.687C12.7237 9.72467 12.7893 9.74625 12.8571 9.74942C12.9249 9.75259 12.9923 9.73724 13.052 9.705C13.1118 9.67314 13.1619 9.6256 13.1968 9.56746C13.2317 9.50933 13.2501 9.4428 13.25 9.375V7.875C13.2499 7.5808 13.1792 7.29093 13.0438 7.02975C13.1038 6.9435 13.1495 6.849 13.1847 6.75H20.75V15.375ZM11 4.80675H9.875V4.3275L12.0065 3.61725C12.0628 3.59798 12.1229 3.59245 12.1817 3.60115C12.2406 3.60985 12.2965 3.6325 12.3448 3.66723C12.3931 3.70196 12.4324 3.74775 12.4594 3.80077C12.4864 3.85379 12.5003 3.9125 12.5 3.972V6.3915C12.4988 6.47974 12.4669 6.56482 12.4099 6.63214C12.3528 6.69946 12.2741 6.74484 12.1873 6.7605L12.185 6.76125C12.1252 6.77107 12.064 6.76618 12.0065 6.747L9.875 6.036V5.55675H11C11.0995 5.55675 11.1948 5.51724 11.2652 5.44691C11.3355 5.37659 11.375 5.28121 11.375 5.18175C11.375 5.08229 11.3355 4.98691 11.2652 4.91658C11.1948 4.84626 11.0995 4.80675 11 4.80675ZM10.889 7.16475L11.7695 7.458C11.8805 7.49475 11.9945 7.512 12.1085 7.5135C12.1153 7.5135 12.122 7.5165 12.1287 7.5165C12.1872 7.5165 12.2435 7.4985 12.3005 7.4895C12.3417 7.48275 12.3838 7.485 12.4235 7.4745C12.4745 7.60275 12.5 7.737 12.5 7.875V8.67375L11.9578 8.313C11.8963 8.27185 11.824 8.24989 11.75 8.24989C11.676 8.24989 11.6037 8.27185 11.5422 8.313L11 8.67375V7.8045C11 7.581 10.961 7.36575 10.889 7.16475ZM20.75 6H13.25V4.5H20.75V6ZM20.75 3.75H13.2238C13.1933 3.59347 13.1298 3.44527 13.0374 3.31533C12.9449 3.1854 12.8258 3.07675 12.6879 2.99669C12.55 2.91662 12.3966 2.867 12.2379 2.85114C12.0792 2.83528 11.919 2.85356 11.768 2.90475L9.55025 3.64425C9.536 3.6285 9.5165 3.6165 9.5 3.6015V1.5H19.625C20.2453 1.5 20.75 2.00475 20.75 2.625V3.75ZM14.375 15H18.875C18.9745 15 19.0698 14.9605 19.1402 14.8902C19.2105 14.8198 19.25 14.7245 19.25 14.625C19.25 14.5255 19.2105 14.4302 19.1402 14.3598C19.0698 14.2895 18.9745 14.25 18.875 14.25H14.375C14.2755 14.25 14.1802 14.2895 14.1098 14.3598C14.0395 14.4302 14 14.5255 14 14.625C14 14.7245 14.0395 14.8198 14.1098 14.8902C14.1802 14.9605 14.2755 15 14.375 15ZM15.875 13.5H18.875C18.9745 13.5 19.0698 13.4605 19.1402 13.3902C19.2105 13.3198 19.25 13.2245 19.25 13.125C19.25 13.0255 19.2105 12.9302 19.1402 12.8598C19.0698 12.7895 18.9745 12.75 18.875 12.75H15.875C15.7755 12.75 15.6802 12.7895 15.6098 12.8598C15.5395 12.9302 15.5 13.0255 15.5 13.125C15.5 13.2245 15.5395 13.3198 15.6098 13.3902C15.6802 13.4605 15.7755 13.5 15.875 13.5Z" fill="#D21E6A"/>
</svg>
